{
  "accessors": [
    {
      "bufferView": 3,
      "componentType": 5126,
      "count": 23308,
      "max": [
        19.360441207885742,
        14.871092796325684,
        6.6910295486450195
      ],
      "min": [
        -19.360441207885742,
        -0.8005614280700684,
        -13.98477840423584
      ],
      "type": "VEC3"
    },
    {
      "bufferView": 3,
      "byteOffset": 279696,
      "componentType": 5126,
      "count": 23308,
      "max": [
        1.0,
        0.9999929666519165,
        0.9999999403953552
      ],
      "min": [
        -1.0,
        -0.9999999403953552,
        -0.9999969005584717
      ],
      "type": "VEC3"
    },
    {
      "bufferView": 4,
      "componentType": 5126,
      "count": 23308,
      "max": [
        1.0,
        1.0,
        1.0,
        1.0
      ],
      "min": [
        0.9960784316062927,
        0.9960784316062927,
        0.9960784316062927,
        0.9960784316062927
      ],
      "type": "VEC4"
    },
    {
      "bufferView": 2,
      "componentType": 5126,
      "count": 23308,
      "max": [
        0.9984380006790161,
        0.9995610117912292
      ],
      "min": [
        0.0012100000167265534,
        0.0019369999645277858
      ],
      "type": "VEC2"
    },
    {
      "bufferView": 1,
      "componentType": 5125,
      "count": 108144,
      "type": "SCALAR"
    },
    {
      "bufferView": 5,
      "componentType": 5126,
      "count": 77,
      "max": [
        100.0,
        0.8560053110122681,
        0.8037134408950806,
        0.0,
        0.8050768971443176,
        100.0,
        0.9874123930931091,
        0.0,
        0.8560016751289368,
        0.9997514486312866,
        99.99999237060547,
        0.0,
        4.396744251251221,
        3.406684398651123,
        5.402730941772461,
        1.0
      ],
      "min": [
        -1.0,
        -0.8560052514076233,
        -0.8037134408950806,
        0.0,
        -0.8050769567489624,
        -0.9729945659637451,
        -0.9997519254684448,
        0.0,
        -0.8560015559196472,
        -0.9889070987701416,
        -0.9729941487312317,
        0.0,
        -4.3967437744140625,
        -7.460567951202393,
        -8.446364402770996,
        1.0
      ],
      "type": "MAT4"
    },
    {
      "bufferView": 0,
      "componentType": 5123,
      "count": 23308,
      "type": "VEC4"
    },
    {
      "bufferView": 4,
      "byteOffset": 372928,
      "componentType": 5126,
      "count": 23308,
      "max": [
        1.0,
        0.5,
        0.09910433739423752,
        0.0
      ],
      "min": [
        0.5,
        0.0,
        0.0,
        0.0
      ],
      "type": "VEC4"
    },
    {
      "bufferView": 6,
      "componentType": 5126,
      "count": 44,
      "max": [
        1.0
      ],
      "min": [
        0.0
      ],
      "type": "SCALAR"
    },
    {
      "bufferView": 7,
      "componentType": 5126,
      "count": 44,
      "max": [
        -2.2737367544323206e-13,
        0.3690532445907593,
        -5.133671265866724e-12
      ],
      "min": [
        -2.2737367544323206e-13,
        0.3690532445907593,
        -5.136335801125824e-12
      ],
      "type": "VEC3"
    },
    {
      "bufferView": 6,
      "byteOffset": 176,
      "componentType": 5126,
      "count": 48,
      "max": [
        1.0
      ],
      "min": [
        0.0
      ],
      "type": "SCALAR"
    },
    {
      "bufferView": 8,
      "componentType": 5126,
      "count": 48,
      "max": [
        0.22280357778072357,
        -1.2906693882541731e-05,
        -3.1356914860225515e-06,
        0.9841084480285645
      ],
      "min": [
        0.17756861448287964,
        -1.3197310181567445e-05,
        -3.791957851717598e-06,
        0.9748633503913879
      ],
      "type": "VEC4"
    },
    {
      "bufferView": 6,
      "byteOffset": 368,
      "componentType": 5126,
      "count": 1,
      "max": [
        0.0
      ],
      "min": [
        0.0
      ],
      "type": "SCALAR"
    },
    {
      "bufferView": 7,
      "byteOffset": 528,
      "componentType": 5126,
      "count": 1,
      "max": [
        -2.0463630789890885e-12,
        0.7323474884033203,
        -3.576335245725204e-07
      ],
      "min": [
        -2.0463630789890885e-12,
        0.7323474884033203,
        -3.576335245725204e-07
      ],
      "type": "VEC3"
    },
    {
      "bufferView": 6,
      "byteOffset": 372,
      "componentType": 5126,
      "count": 49,
      "max": [
        1.0
      ],
      "min": [
        0.0
      ],
      "type": "SCALAR"
    },
    {
      "bufferView": 8,
      "byteOffset": 768,
      "componentType": 5126,
      "count": 49,
      "max": [
        -0.007631744723767042,
        7.912782962193887e-07,
        3.092427789397334e-07,
        0.9999708533287048
      ],
      "min": [
        -0.04230281338095665,
        7.81024539264763e-07,
        2.8197345613989455e-07,
        0.9991048574447632
      ],
      "type": "VEC4"
    },
    {
      "bufferView": 6,
      "byteOffset": 568,
      "componentType": 5126,
      "count": 41,
      "max": [
        1.0
      ],
      "min": [
        0.0
      ],
      "type": "SCALAR"
    },
    {
      "bufferView": 7,
      "byteOffset": 540,
      "componentType": 5126,
      "count": 41,
      "max": [
        -9.094947017729282e-13,
        0.6110044121742249,
        -3.6148861681795097e-12
      ],
      "min": [
        -9.094947017729282e-13,
        0.6110044121742249,
        -3.61755070343861e-12
      ],
      "type": "VEC3"
    },
    {
      "bufferView": 6,
      "byteOffset": 732,
      "componentType": 5126,
      "count": 49,
      "max": [
        1.0
      ],
      "min": [
        0.0
      ],
      "type": "SCALAR"
    },
    {
      "bufferView": 8,
      "byteOffset": 1552,
      "componentType": 5126,
      "count": 49,
      "max": [
        0.0007324371254071593,
        2.5409008230781183e-07,
        2.2171718683239305e-08,
        1.0
      ],
      "min": [
        -0.021237125620245934,
        2.5366421141370665e-07,
        1.6593519447383187e-08,
        0.9997744560241699
      ],
      "type": "VEC4"
    },
    {
      "bufferView": 6,
      "byteOffset": 928,
      "componentType": 5126,
      "count": 49,
      "max": [
        1.0
      ],
      "min": [
        0.0
      ],
      "type": "SCALAR"
    },
    {
      "bufferView": 8,
      "byteOffset": 2336,
      "componentType": 5126,
      "count": 49,
      "max": [
        0.03320125490427017,
        7.77711363753042e-07,
        -6.611993086380608e-08,
        0.9998578429222107
      ],
      "min": [
        0.01686226762831211,
        7.765268605908204e-07,
        -7.882167096795456e-08,
        0.9994486570358276
      ],
      "type": "VEC4"
    },
    {
      "bufferView": 6,
      "byteOffset": 1124,
      "componentType": 5126,
      "count": 47,
      "max": [
        1.0
      ],
      "min": [
        0.0
      ],
      "type": "SCALAR"
    },
    {
      "bufferView": 8,
      "byteOffset": 3120,
      "componentType": 5126,
      "count": 47,
      "max": [
        -0.2254052609205246,
        -8.881096437107772e-05,
        -1.8476044715498574e-05,
        0.9742650985717773
      ],
      "min": [
        -0.230894535779953,
        -8.891654579201713e-05,
        -1.8977058061864227e-05,
        0.9729787707328796
      ],
      "type": "VEC4"
    },
    {
      "bufferView": 6,
      "byteOffset": 1312,
      "componentType": 5126,
      "count": 30,
      "max": [
        1.0
      ],
      "min": [
        0.0
      ],
      "type": "SCALAR"
    },
    {
      "bufferView": 8,
      "byteOffset": 3872,
      "componentType": 5126,
      "count": 30,
      "max": [
        0.6219006776809692,
        0.06921976059675217,
        -0.6075750589370728,
        -0.4891837537288666
      ],
      "min": [
        0.6219006776809692,
        0.06921976059675217,
        -0.6075750589370728,
        -0.4891837537288666
      ],
      "type": "VEC4"
    },
    {
      "bufferView": 6,
      "byteOffset": 1432,
      "componentType": 5126,
      "count": 27,
      "max": [
        1.0
      ],
      "min": [
        0.0
      ],
      "type": "SCALAR"
    },
    {
      "bufferView": 8,
      "byteOffset": 4352,
      "componentType": 5126,
      "count": 27,
      "max": [
        -0.561790943145752,
        -0.0800769180059433,
        0.5313448309898376,
        0.6290081739425659
      ],
      "min": [
        -0.561790943145752,
        -0.0800769180059433,
        0.5313448309898376,
        0.6290081739425659
      ],
      "type": "VEC4"
    },
    {
      "bufferView": 6,
      "byteOffset": 1540,
      "componentType": 5126,
      "count": 31,
      "max": [
        1.0
      ],
      "min": [
        0.0
      ],
      "type": "SCALAR"
    },
    {
      "bufferView": 8,
      "byteOffset": 4784,
      "componentType": 5126,
      "count": 31,
      "max": [
        -0.4861415922641754,
        -0.08070368319749832,
        0.4484129548072815,
        0.745707094669342
      ],
      "min": [
        -0.4861415922641754,
        -0.08070368319749832,
        0.4484129548072815,
        0.745707094669342
      ],
      "type": "VEC4"
    },
    {
      "bufferView": 6,
      "byteOffset": 1664,
      "componentType": 5126,
      "count": 30,
      "max": [
        1.0
      ],
      "min": [
        0.0
      ],
      "type": "SCALAR"
    },
    {
      "bufferView": 8,
      "byteOffset": 5280,
      "componentType": 5126,
      "count": 30,
      "max": [
        -0.40028735995292664,
        -0.0761154517531395,
        0.35958054661750793,
        0.8394511938095093
      ],
      "min": [
        -0.40028735995292664,
        -0.0761154517531395,
        0.35958054661750793,
        0.8394511938095093
      ],
      "type": "VEC4"
    },
    {
      "bufferView": 6,
      "byteOffset": 1784,
      "componentType": 5126,
      "count": 31,
      "max": [
        1.0
      ],
      "min": [
        0.0
      ],
      "type": "SCALAR"
    },
    {
      "bufferView": 8,
      "byteOffset": 5760,
      "componentType": 5126,
      "count": 31,
      "max": [
        -0.31478625535964966,
        -0.06614682078361511,
        0.2765001654624939,
        0.9055837392807007
      ],
      "min": [
        -0.31478625535964966,
        -0.06614682078361511,
        0.2765001654624939,
        0.9055837392807007
      ],
      "type": "VEC4"
    },
    {
      "bufferView": 6,
      "byteOffset": 1908,
      "componentType": 5126,
      "count": 31,
      "max": [
        1.0
      ],
      "min": [
        0.0
      ],
      "type": "SCALAR"
    },
    {
      "bufferView": 8,
      "byteOffset": 6256,
      "componentType": 5126,
      "count": 31,
      "max": [
        -0.24359233677387238,
        -0.04869656264781952,
        0.21644937992095947,
        0.944161593914032
      ],
      "min": [
        -0.24359233677387238,
        -0.04869656264781952,
        0.21644937992095947,
        0.944161593914032
      ],
      "type": "VEC4"
    },
    {
      "bufferView": 6,
      "byteOffset": 2032,
      "componentType": 5126,
      "count": 49,
      "max": [
        1.0
      ],
      "min": [
        0.0
      ],
      "type": "SCALAR"
    },
    {
      "bufferView": 8,
      "byteOffset": 6752,
      "componentType": 5126,
      "count": 49,
      "max": [
        0.1568787395954132,
        0.016919193789362907,
        0.027512850239872932,
        0.9917396306991577
      ],
      "min": [
        -0.1065015196800232,
        -0.33975091576576233,
        -0.3740135431289673,
        0.8563531041145325
      ],
      "type": "VEC4"
    },
    {
      "bufferView": 6,
      "byteOffset": 2228,
      "componentType": 5126,
      "count": 44,
      "max": [
        1.0
      ],
      "min": [
        0.0
      ],
      "type": "SCALAR"
    },
    {
      "bufferView": 7,
      "byteOffset": 1032,
      "componentType": 5126,
      "count": 44,
      "max": [
        -2.5331974029541016e-07,
        1.457679033279419,
        4.440892098500626e-16
      ],
      "min": [
        -2.5331974029541016e-07,
        1.457679033279419,
        -4.440892098500626e-16
      ],
      "type": "VEC3"
    },
    {
      "bufferView": 6,
      "byteOffset": 2404,
      "componentType": 5126,
      "count": 49,
      "max": [
        1.0
      ],
      "min": [
        0.0
      ],
      "type": "SCALAR"
    },
    {
      "bufferView": 8,
      "byteOffset": 7536,
      "componentType": 5126,
      "count": 49,
      "max": [
        0.34565553069114685,
        0.09912709146738052,
        -0.00804211851209402,
        0.9824167490005493
      ],
      "min": [
        -0.24010561406612396,
        0.008480845019221306,
        -0.5272305011749268,
        0.8323290348052979
      ],
      "type": "VEC4"
    },
    {
      "bufferView": 6,
      "byteOffset": 2600,
      "componentType": 5126,
      "count": 40,
      "max": [
        1.0
      ],
      "min": [
        0.0
      ],
      "type": "SCALAR"
    },
    {
      "bufferView": 8,
      "byteOffset": 8320,
      "componentType": 5126,
      "count": 40,
      "max": [
        0.11251282691955566,
        0.3744344711303711,
        0.17273035645484924,
        0.9463772773742676
      ],
      "min": [
        -0.3460856080055237,
        0.243101567029953,
        -0.25202131271362305,
        0.8697949051856995
      ],
      "type": "VEC4"
    },
    {
      "bufferView": 6,
      "byteOffset": 2760,
      "componentType": 5126,
      "count": 1,
      "max": [
        0.0
      ],
      "min": [
        0.0
      ],
      "type": "SCALAR"
    },
    {
      "bufferView": 7,
      "byteOffset": 1560,
      "componentType": 5126,
      "count": 1,
      "max": [
        0.6505957841873169,
        0.3597981929779053,
        -0.7656645774841309
      ],
      "min": [
        0.6505957841873169,
        0.3597981929779053,
        -0.7656645774841309
      ],
      "type": "VEC3"
    },
    {
      "bufferView": 6,
      "byteOffset": 2764,
      "componentType": 5126,
      "count": 30,
      "max": [
        1.0
      ],
      "min": [
        0.0
      ],
      "type": "SCALAR"
    },
    {
      "bufferView": 8,
      "byteOffset": 8960,
      "componentType": 5126,
      "count": 30,
      "max": [
        0.6219006776809692,
        -0.06921975314617157,
        0.6075751185417175,
        -0.4891836643218994
      ],
      "min": [
        0.6219006776809692,
        -0.06921975314617157,
        0.6075751185417175,
        -0.4891836643218994
      ],
      "type": "VEC4"
    },
    {
      "bufferView": 6,
      "byteOffset": 2884,
      "componentType": 5126,
      "count": 1,
      "max": [
        0.0
      ],
      "min": [
        0.0
      ],
      "type": "SCALAR"
    },
    {
      "bufferView": 7,
      "byteOffset": 1572,
      "componentType": 5126,
      "count": 1,
      "max": [
        0.839695930480957,
        1.0286654233932495,
        -0.9899892807006836
      ],
      "min": [
        0.839695930480957,
        1.0286654233932495,
        -0.9899892807006836
      ],
      "type": "VEC3"
    },
    {
      "bufferView": 6,
      "byteOffset": 2888,
      "componentType": 5126,
      "count": 31,
      "max": [
        1.0
      ],
      "min": [
        0.0
      ],
      "type": "SCALAR"
    },
    {
      "bufferView": 8,
      "byteOffset": 9440,
      "componentType": 5126,
      "count": 31,
      "max": [
        -0.5617908239364624,
        0.08007694780826569,
        -0.5313448309898376,
        0.6290082931518555
      ],
      "min": [
        -0.5617908239364624,
        0.08007694780826569,
        -0.5313448309898376,
        0.6290082931518555
      ],
      "type": "VEC4"
    },
    {
      "bufferView": 6,
      "byteOffset": 3012,
      "componentType": 5126,
      "count": 31,
      "max": [
        1.0
      ],
      "min": [
        0.0
      ],
      "type": "SCALAR"
    },
    {
      "bufferView": 8,
      "byteOffset": 9936,
      "componentType": 5126,
      "count": 31,
      "max": [
        -0.48614153265953064,
        0.0807037279009819,
        -0.4484129846096039,
        0.745707094669342
      ],
      "min": [
        -0.48614153265953064,
        0.0807037279009819,
        -0.4484129846096039,
        0.745707094669342
      ],
      "type": "VEC4"
    },
    {
      "bufferView": 6,
      "byteOffset": 3136,
      "componentType": 5126,
      "count": 31,
      "max": [
        1.0
      ],
      "min": [
        0.0
      ],
      "type": "SCALAR"
    },
    {
      "bufferView": 8,
      "byteOffset": 10432,
      "componentType": 5126,
      "count": 31,
      "max": [
        -0.40028733015060425,
        0.07611554116010666,
        -0.3595805764198303,
        0.8394511938095093
      ],
      "min": [
        -0.40028733015060425,
        0.07611554116010666,
        -0.3595805764198303,
        0.8394511938095093
      ],
      "type": "VEC4"
    },
    {
      "bufferView": 6,
      "byteOffset": 3260,
      "componentType": 5126,
      "count": 31,
      "max": [
        1.0
      ],
      "min": [
        0.0
      ],
      "type": "SCALAR"
    },
    {
      "bufferView": 8,
      "byteOffset": 10928,
      "componentType": 5126,
      "count": 31,
      "max": [
        -0.3147863447666168,
        0.06614696979522705,
        -0.2765001356601715,
        0.9055836796760559
      ],
      "min": [
        -0.3147863447666168,
        0.06614696979522705,
        -0.2765001356601715,
        0.9055836796760559
      ],
      "type": "VEC4"
    },
    {
      "bufferView": 6,
      "byteOffset": 3384,
      "componentType": 5126,
      "count": 31,
      "max": [
        1.0
      ],
      "min": [
        0.0
      ],
      "type": "SCALAR"
    },
    {
      "bufferView": 8,
      "byteOffset": 11424,
      "componentType": 5126,
      "count": 31,
      "max": [
        -0.24359233677387238,
        0.04869656637310982,
        -0.21644927561283112,
        0.944161593914032
      ],
      "min": [
        -0.24359233677387238,
        0.04869656637310982,
        -0.21644927561283112,
        0.944161593914032
      ],
      "type": "VEC4"
    },
    {
      "bufferView": 6,
      "byteOffset": 3508,
      "componentType": 5126,
      "count": 49,
      "max": [
        1.0
      ],
      "min": [
        0.0
      ],
      "type": "SCALAR"
    },
    {
      "bufferView": 8,
      "byteOffset": 11920,
      "componentType": 5126,
      "count": 49,
      "max": [
        0.15686987340450287,
        0.3397509455680847,
        0.3740135431289673,
        0.9918555617332458
      ],
      "min": [
        -0.1065015122294426,
        -0.01691914163529873,
        -0.02751288376748562,
        0.8563530445098877
      ],
      "type": "VEC4"
    },
    {
      "bufferView": 6,
      "byteOffset": 3704,
      "componentType": 5126,
      "count": 1,
      "max": [
        0.0
      ],
      "min": [
        0.0
      ],
      "type": "SCALAR"
    },
    {
      "bufferView": 7,
      "byteOffset": 1584,
      "componentType": 5126,
      "count": 1,
      "max": [
        -4.172325134277344e-07,
        1.4576787948608398,
        -2.9802322387695313e-08
      ],
      "min": [
        -4.172325134277344e-07,
        1.4576787948608398,
        -2.9802322387695313e-08
      ],
      "type": "VEC3"
    },
    {
      "bufferView": 6,
      "byteOffset": 3708,
      "componentType": 5126,
      "count": 49,
      "max": [
        1.0
      ],
      "min": [
        0.0
      ],
      "type": "SCALAR"
    },
    {
      "bufferView": 8,
      "byteOffset": 12704,
      "componentType": 5126,
      "count": 49,
      "max": [
        0.34565550088882446,
        -0.008480934426188469,
        0.5272305607795715,
        0.9824166893959045
      ],
      "min": [
        -0.23995892703533173,
        -0.09754005074501038,
        0.008042197674512863,
        0.8323745727539063
      ],
      "type": "VEC4"
    },
    {
      "bufferView": 6,
      "byteOffset": 3904,
      "componentType": 5126,
      "count": 40,
      "max": [
        1.0
      ],
      "min": [
        0.0
      ],
      "type": "SCALAR"
    },
    {
      "bufferView": 8,
      "byteOffset": 13488,
      "componentType": 5126,
      "count": 40,
      "max": [
        0.11251279711723328,
        -0.243101567029953,
        0.25202131271362305,
        0.9463772177696228
      ],
      "min": [
        -0.34608566761016846,
        -0.3744345009326935,
        -0.17273041605949402,
        0.8697949051856995
      ],
      "type": "VEC4"
    },
    {
      "bufferView": 6,
      "byteOffset": 4064,
      "componentType": 5126,
      "count": 49,
      "max": [
        1.0
      ],
      "min": [
        0.0
      ],
      "type": "SCALAR"
    },
    {
      "bufferView": 8,
      "byteOffset": 14128,
      "componentType": 5126,
      "count": 49,
      "max": [
        -0.3086167275905609,
        -0.012186508625745773,
        0.10054229199886322,
        0.9477627277374268
      ],
      "min": [
        -0.36812448501586914,
        -0.013918918557465076,
        0.07970571517944336,
        0.9242200255393982
      ],
      "type": "VEC4"
    },
    {
      "bufferView": 6,
      "byteOffset": 4260,
      "componentType": 5126,
      "count": 49,
      "max": [
        1.0
      ],
      "min": [
        0.0
      ],
      "type": "SCALAR"
    },
    {
      "bufferView": 8,
      "byteOffset": 14912,
      "componentType": 5126,
      "count": 49,
      "max": [
        0.9986712336540222,
        0.053052037954330444,
        -0.0162278413772583,
        0.06657745689153671
      ],
      "min": [
        0.9962033629417419,
        0.04353514313697815,
        -0.018216146156191826,
        0.022293228656053543
      ],
      "type": "VEC4"
    },
    {
      "bufferView": 6,
      "byteOffset": 4456,
      "componentType": 5126,
      "count": 49,
      "max": [
        1.0
      ],
      "min": [
        0.0
      ],
      "type": "SCALAR"
    },
    {
      "bufferView": 8,
      "byteOffset": 15696,
      "componentType": 5126,
      "count": 49,
      "max": [
        -0.3086179792881012,
        0.0139202531427145,
        -0.07969354838132858,
        0.9477633237838745
      ],
      "min": [
        -0.3681264817714691,
        0.012188524939119816,
        -0.10052970051765442,
        0.9242205619812012
      ],
      "type": "VEC4"
    },
    {
      "bufferView": 6,
      "byteOffset": 4652,
      "componentType": 5126,
      "count": 49,
      "max": [
        1.0
      ],
      "min": [
        0.0
      ],
      "type": "SCALAR"
    },
    {
      "bufferView": 8,
      "byteOffset": 16480,
      "componentType": 5126,
      "count": 49,
      "max": [
        0.9986714124679565,
        -0.0435323640704155,
        0.018213296309113503,
        0.06657657772302628
      ],
      "min": [
        0.996203601360321,
        -0.05304888263344765,
        0.01622668467462063,
        0.022292736917734146
      ],
      "type": "VEC4"
    },
    {
      "bufferView": 6,
      "byteOffset": 4848,
      "componentType": 5126,
      "count": 49,
      "max": [
        1.0
      ],
      "min": [
        0.0
      ],
      "type": "SCALAR"
    },
    {
      "bufferView": 8,
      "byteOffset": 17264,
      "componentType": 5126,
      "count": 49,
      "max": [
        0.019067706540226936,
        0.9323266744613647,
        -0.02083301916718483,
        0.36092641949653625
      ],
      "min": [
        0.008064793422818184,
        0.9312577843666077,
        -0.04925518110394478,
        0.3605126142501831
      ],
      "type": "VEC4"
    },
    {
      "bufferView": 6,
      "byteOffset": 5044,
      "componentType": 5126,
      "count": 49,
      "max": [
        1.0
      ],
      "min": [
        0.0
      ],
      "type": "SCALAR"
    },
    {
      "bufferView": 8,
      "byteOffset": 18048,
      "componentType": 5126,
      "count": 49,
      "max": [
        -0.09536627680063248,
        0.9363144636154175,
        -0.027645884081721306,
        0.3361351788043976
      ],
      "min": [
        -0.10711803287267685,
        0.9353735446929932,
        -0.05530587211251259,
        0.3334093391895294
      ],
      "type": "VEC4"
    },
    {
      "bufferView": 6,
      "byteOffset": 5240,
      "componentType": 5126,
      "count": 49,
      "max": [
        1.0
      ],
      "min": [
        0.0
      ],
      "type": "SCALAR"
    },
    {
      "bufferView": 8,
      "byteOffset": 18832,
      "componentType": 5126,
      "count": 49,
      "max": [
        -0.19586265087127686,
        0.9292787909507751,
        -0.050253625959157944,
        0.3090892434120178
      ],
      "min": [
        -0.2077929824590683,
        0.9267564415931702,
        -0.07684634625911713,
        0.3036007285118103
      ],
      "type": "VEC4"
    },
    {
      "bufferView": 6,
      "byteOffset": 5436,
      "componentType": 5126,
      "count": 49,
      "max": [
        1.0
      ],
      "min": [
        0.0
      ],
      "type": "SCALAR"
    },
    {
      "bufferView": 8,
      "byteOffset": 19616,
      "componentType": 5126,
      "count": 49,
      "max": [
        0.10774683952331543,
        0.9179059863090515,
        0.05159061402082443,
        0.38395625352859497
      ],
      "min": [
        0.09704004228115082,
        0.9167465567588806,
        0.023324115201830864,
        0.3812979459762573
      ],
      "type": "VEC4"
    },
    {
      "bufferView": 6,
      "byteOffset": 5632,
      "componentType": 5126,
      "count": 49,
      "max": [
        1.0
      ],
      "min": [
        0.0
      ],
      "type": "SCALAR"
    },
    {
      "bufferView": 8,
      "byteOffset": 20400,
      "componentType": 5126,
      "count": 49,
      "max": [
        0.19655124843120575,
        0.893190324306488,
        0.10199777036905289,
        0.40125715732574463
      ],
      "min": [
        0.18692564964294434,
        0.891473650932312,
        0.07506684958934784,
        0.3959517776966095
      ],
      "type": "VEC4"
    },
    {
      "bufferView": 6,
      "byteOffset": 5828,
      "componentType": 5126,
      "count": 39,
      "max": [
        1.0
      ],
      "min": [
        0.0
      ],
      "type": "SCALAR"
    },
    {
      "bufferView": 7,
      "byteOffset": 1596,
      "componentType": 5126,
      "count": 39,
      "max": [
        -1.4352963262354024e-12,
        0.5769038200378418,
        -1.0480505352461478e-12
      ],
      "min": [
        -1.4352963262354024e-12,
        0.5769038200378418,
        -1.0516032489249483e-12
      ],
      "type": "VEC3"
    },
    {
      "bufferView": 6,
      "byteOffset": 5984,
      "componentType": 5126,
      "count": 49,
      "max": [
        1.0
      ],
      "min": [
        0.0
      ],
      "type": "SCALAR"
    },
    {
      "bufferView": 8,
      "byteOffset": 21184,
      "componentType": 5126,
      "count": 49,
      "max": [
        -0.014043698087334633,
        0.360868364572525,
        -0.00545128621160984,
        0.9327805042266846
      ],
      "min": [
        -0.07099974900484085,
        0.35997071862220764,
        -0.027485541999340057,
        0.9298490881919861
      ],
      "type": "VEC4"
    },
    {
      "bufferView": 6,
      "byteOffset": 6180,
      "componentType": 5126,
      "count": 49,
      "max": [
        1.0
      ],
      "min": [
        0.0
      ],
      "type": "SCALAR"
    },
    {
      "bufferView": 8,
      "byteOffset": 21968,
      "componentType": 5126,
      "count": 49,
      "max": [
        0.1507759541273117,
        6.997184414103685e-07,
        -6.55710266528331e-07,
        0.9931609630584717
      ],
      "min": [
        0.1167529970407486,
        6.76797867527057e-07,
        -6.793426905460365e-07,
        0.9885679483413696
      ],
      "type": "VEC4"
    },
    {
      "bufferView": 6,
      "byteOffset": 6376,
      "componentType": 5126,
      "count": 49,
      "max": [
        1.0
      ],
      "min": [
        0.0
      ],
      "type": "SCALAR"
    },
    {
      "bufferView": 8,
      "byteOffset": 22752,
      "componentType": 5126,
      "count": 49,
      "max": [
        0.09247102588415146,
        8.832843150230474e-07,
        -4.355211729034636e-07,
        0.9982083439826965
      ],
      "min": [
        0.05983412265777588,
        8.685576062816835e-07,
        -4.641956365958322e-07,
        0.9957153797149658
      ],
      "type": "VEC4"
    },
    {
      "bufferView": 6,
      "byteOffset": 6572,
      "componentType": 5126,
      "count": 29,
      "max": [
        1.0
      ],
      "min": [
        0.0
      ],
      "type": "SCALAR"
    },
    {
      "bufferView": 7,
      "byteOffset": 2064,
      "componentType": 5126,
      "count": 29,
      "max": [
        3.043624463572314e-09,
        -3.531857117877735e-08,
        -4.7748017095727846e-08
      ],
      "min": [
        3.0436237974384994e-09,
        -3.531857117877735e-08,
        -4.7748017095727846e-08
      ],
      "type": "VEC3"
    },
    {
      "bufferView": 6,
      "byteOffset": 6688,
      "componentType": 5126,
      "count": 49,
      "max": [
        1.0
      ],
      "min": [
        0.0
      ],
      "type": "SCALAR"
    },
    {
      "bufferView": 7,
      "byteOffset": 2412,
      "componentType": 5126,
      "count": 49,
      "max": [
        1.1850183010101318,
        -2.238649368286133,
        2.467095136642456
      ],
      "min": [
        1.1850183010101318,
        -2.5263290405273438,
        2.0332460403442383
      ],
      "type": "VEC3"
    },
    {
      "bufferView": 6,
      "byteOffset": 6884,
      "componentType": 5126,
      "count": 49,
      "max": [
        1.0
      ],
      "min": [
        0.0
      ],
      "type": "SCALAR"
    },
    {
      "bufferView": 7,
      "byteOffset": 3000,
      "componentType": 5126,
      "count": 49,
      "max": [
        -1.185036301612854,
        -2.238649368286133,
        2.467099905014038
      ],
      "min": [
        -1.185036301612854,
        -2.5263288021087646,
        2.033250570297241
      ],
      "type": "VEC3"
    },
    {
      "bufferView": 6,
      "byteOffset": 7080,
      "componentType": 5126,
      "count": 49,
      "max": [
        1.0
      ],
      "min": [
        0.0
      ],
      "type": "SCALAR"
    },
    {
      "bufferView": 7,
      "byteOffset": 3588,
      "componentType": 5126,
      "count": 49,
      "max": [
        -3.821840437012725e-06,
        5.514353275299072,
        -1.5704944133758545
      ],
      "min": [
        -3.821840437012725e-06,
        5.41225528717041,
        -1.9041588306427002
      ],
      "type": "VEC3"
    },
    {
      "bufferView": 6,
      "byteOffset": 7276,
      "componentType": 5126,
      "count": 49,
      "max": [
        1.0
      ],
      "min": [
        0.0
      ],
      "type": "SCALAR"
    },
    {
      "bufferView": 7,
      "byteOffset": 4176,
      "componentType": 5126,
      "count": 49,
      "max": [
        -6.310982598733972e-07,
        1.9368267059326172,
        5.805227756500244
      ],
      "min": [
        -6.310982598733972e-07,
        1.9368267059326172,
        4.2249755859375
      ],
      "type": "VEC3"
    }
  ],
  "animations": [
    {
      "channels": [
        {
          "sampler": 0,
          "target": {
            "node": 13,
            "path": "translation"
          }
        },
        {
          "sampler": 1,
          "target": {
            "node": 13,
            "path": "rotation"
          }
        },
        {
          "sampler": 2,
          "target": {
            "node": 12,
            "path": "translation"
          }
        },
        {
          "sampler": 3,
          "target": {
            "node": 12,
            "path": "rotation"
          }
        },
        {
          "sampler": 4,
          "target": {
            "node": 11,
            "path": "translation"
          }
        },
        {
          "sampler": 5,
          "target": {
            "node": 11,
            "path": "rotation"
          }
        },
        {
          "sampler": 6,
          "target": {
            "node": 10,
            "path": "rotation"
          }
        },
        {
          "sampler": 7,
          "target": {
            "node": 9,
            "path": "rotation"
          }
        },
        {
          "sampler": 8,
          "target": {
            "node": 19,
            "path": "rotation"
          }
        },
        {
          "sampler": 9,
          "target": {
            "node": 21,
            "path": "rotation"
          }
        },
        {
          "sampler": 10,
          "target": {
            "node": 23,
            "path": "rotation"
          }
        },
        {
          "sampler": 11,
          "target": {
            "node": 25,
            "path": "rotation"
          }
        },
        {
          "sampler": 12,
          "target": {
            "node": 27,
            "path": "rotation"
          }
        },
        {
          "sampler": 13,
          "target": {
            "node": 29,
            "path": "rotation"
          }
        },
        {
          "sampler": 14,
          "target": {
            "node": 18,
            "path": "rotation"
          }
        },
        {
          "sampler": 15,
          "target": {
            "node": 17,
            "path": "translation"
          }
        },
        {
          "sampler": 16,
          "target": {
            "node": 17,
            "path": "rotation"
          }
        },
        {
          "sampler": 17,
          "target": {
            "node": 16,
            "path": "rotation"
          }
        },
        {
          "sampler": 18,
          "target": {
            "node": 35,
            "path": "translation"
          }
        },
        {
          "sampler": 19,
          "target": {
            "node": 35,
            "path": "rotation"
          }
        },
        {
          "sampler": 20,
          "target": {
            "node": 37,
            "path": "translation"
          }
        },
        {
          "sampler": 21,
          "target": {
            "node": 37,
            "path": "rotation"
          }
        },
        {
          "sampler": 22,
          "target": {
            "node": 39,
            "path": "rotation"
          }
        },
        {
          "sampler": 23,
          "target": {
            "node": 41,
            "path": "rotation"
          }
        },
        {
          "sampler": 24,
          "target": {
            "node": 43,
            "path": "rotation"
          }
        },
        {
          "sampler": 25,
          "target": {
            "node": 45,
            "path": "rotation"
          }
        },
        {
          "sampler": 26,
          "target": {
            "node": 34,
            "path": "rotation"
          }
        },
        {
          "sampler": 27,
          "target": {
            "node": 33,
            "path": "translation"
          }
        },
        {
          "sampler": 28,
          "target": {
            "node": 33,
            "path": "rotation"
          }
        },
        {
          "sampler": 29,
          "target": {
            "node": 32,
            "path": "rotation"
          }
        },
        {
          "sampler": 30,
          "target": {
            "node": 48,
            "path": "rotation"
          }
        },
        {
          "sampler": 31,
          "target": {
            "node": 47,
            "path": "rotation"
          }
        },
        {
          "sampler": 32,
          "target": {
            "node": 51,
            "path": "rotation"
          }
        },
        {
          "sampler": 33,
          "target": {
            "node": 50,
            "path": "rotation"
          }
        },
        {
          "sampler": 34,
          "target": {
            "node": 57,
            "path": "rotation"
          }
        },
        {
          "sampler": 35,
          "target": {
            "node": 59,
            "path": "rotation"
          }
        },
        {
          "sampler": 36,
          "target": {
            "node": 61,
            "path": "rotation"
          }
        },
        {
          "sampler": 37,
          "target": {
            "node": 63,
            "path": "rotation"
          }
        },
        {
          "sampler": 38,
          "target": {
            "node": 65,
            "path": "rotation"
          }
        },
        {
          "sampler": 39,
          "target": {
            "node": 56,
            "path": "translation"
          }
        },
        {
          "sampler": 40,
          "target": {
            "node": 56,
            "path": "rotation"
          }
        },
        {
          "sampler": 41,
          "target": {
            "node": 55,
            "path": "rotation"
          }
        },
        {
          "sampler": 42,
          "target": {
            "node": 54,
            "path": "rotation"
          }
        },
        {
          "sampler": 43,
          "target": {
            "node": 68,
            "path": "translation"
          }
        },
        {
          "sampler": 44,
          "target": {
            "node": 67,
            "path": "translation"
          }
        },
        {
          "sampler": 45,
          "target": {
            "node": 74,
            "path": "translation"
          }
        },
        {
          "sampler": 46,
          "target": {
            "node": 81,
            "path": "translation"
          }
        },
        {
          "sampler": 47,
          "target": {
            "node": 7,
            "path": "translation"
          }
        }
      ],
      "name": "amature|flying",
      "samplers": [
        {
          "input": 8,
          "interpolation": "LINEAR",
          "output": 9
        },
        {
          "input": 10,
          "interpolation": "LINEAR",
          "output": 11
        },
        {
          "input": 12,
          "interpolation": "LINEAR",
          "output": 13
        },
        {
          "input": 14,
          "interpolation": "LINEAR",
          "output": 15
        },
        {
          "input": 16,
          "interpolation": "LINEAR",
          "output": 17
        },
        {
          "input": 18,
          "interpolation": "LINEAR",
          "output": 19
        },
        {
          "input": 20,
          "interpolation": "LINEAR",
          "output": 21
        },
        {
          "input": 22,
          "interpolation": "LINEAR",
          "output": 23
        },
        {
          "input": 24,
          "interpolation": "LINEAR",
          "output": 25
        },
        {
          "input": 26,
          "interpolation": "LINEAR",
          "output": 27
        },
        {
          "input": 28,
          "interpolation": "LINEAR",
          "output": 29
        },
        {
          "input": 30,
          "interpolation": "LINEAR",
          "output": 31
        },
        {
          "input": 32,
          "interpolation": "LINEAR",
          "output": 33
        },
        {
          "input": 34,
          "interpolation": "LINEAR",
          "output": 35
        },
        {
          "input": 36,
          "interpolation": "LINEAR",
          "output": 37
        },
        {
          "input": 38,
          "interpolation": "LINEAR",
          "output": 39
        },
        {
          "input": 40,
          "interpolation": "LINEAR",
          "output": 41
        },
        {
          "input": 42,
          "interpolation": "LINEAR",
          "output": 43
        },
        {
          "input": 44,
          "interpolation": "LINEAR",
          "output": 45
        },
        {
          "input": 46,
          "interpolation": "LINEAR",
          "output": 47
        },
        {
          "input": 48,
          "interpolation": "LINEAR",
          "output": 49
        },
        {
          "input": 50,
          "interpolation": "LINEAR",
          "output": 51
        },
        {
          "input": 52,
          "interpolation": "LINEAR",
          "output": 53
        },
        {
          "input": 54,
          "interpolation": "LINEAR",
          "output": 55
        },
        {
          "input": 56,
          "interpolation": "LINEAR",
          "output": 57
        },
        {
          "input": 58,
          "interpolation": "LINEAR",
          "output": 59
        },
        {
          "input": 60,
          "interpolation": "LINEAR",
          "output": 61
        },
        {
          "input": 62,
          "interpolation": "LINEAR",
          "output": 63
        },
        {
          "input": 64,
          "interpolation": "LINEAR",
          "output": 65
        },
        {
          "input": 66,
          "interpolation": "LINEAR",
          "output": 67
        },
        {
          "input": 68,
          "interpolation": "LINEAR",
          "output": 69
        },
        {
          "input": 70,
          "interpolation": "LINEAR",
          "output": 71
        },
        {
          "input": 72,
          "interpolation": "LINEAR",
          "output": 73
        },
        {
          "input": 74,
          "interpolation": "LINEAR",
          "output": 75
        },
        {
          "input": 76,
          "interpolation": "LINEAR",
          "output": 77
        },
        {
          "input": 78,
          "interpolation": "LINEAR",
          "output": 79
        },
        {
          "input": 80,
          "interpolation": "LINEAR",
          "output": 81
        },
        {
          "input": 82,
          "interpolation": "LINEAR",
          "output": 83
        },
        {
          "input": 84,
          "interpolation": "LINEAR",
          "output": 85
        },
        {
          "input": 86,
          "interpolation": "LINEAR",
          "output": 87
        },
        {
          "input": 88,
          "interpolation": "LINEAR",
          "output": 89
        },
        {
          "input": 90,
          "interpolation": "LINEAR",
          "output": 91
        },
        {
          "input": 92,
          "interpolation": "LINEAR",
          "output": 93
        },
        {
          "input": 94,
          "interpolation": "LINEAR",
          "output": 95
        },
        {
          "input": 96,
          "interpolation": "LINEAR",
          "output": 97
        },
        {
          "input": 98,
          "interpolation": "LINEAR",
          "output": 99
        },
        {
          "input": 100,
          "interpolation": "LINEAR",
          "output": 101
        },
        {
          "input": 102,
          "interpolation": "LINEAR",
          "output": 103
        }
      ]
    }
  ],
  "asset": {
    "extras": {
      "author": "Rukh3D (https://sketchfab.com/rukh3d)",
      "license": "CC-BY-4.0 (http://creativecommons.org/licenses/by/4.0/)",
      "source": "https://sketchfab.com/3d-models/robot-bird-eagle-a12a4a928c324ffb8af5724e21eadf0a",
      "title": "Robot Bird Eagle"
    },
    "generator": "Sketchfab-15.4.0",
    "version": "2.0"
  },
  "bufferViews": [
    {
      "buffer": 0,
      "byteLength": 186464,
      "byteStride": 8,
      "name": "shortBufferViews",
      "target": 34962
    },
    {
      "buffer": 0,
      "byteLength": 432576,
      "byteOffset": 186464,
      "name": "floatBufferViews",
      "target": 34963
    },
    {
      "buffer": 0,
      "byteLength": 186464,
      "byteOffset": 619040,
      "byteStride": 8,
      "name": "floatBufferViews",
      "target": 34962
    },
    {
      "buffer": 0,
      "byteLength": 559392,
      "byteOffset": 805504,
      "byteStride": 12,
      "name": "floatBufferViews",
      "target": 34962
    },
    {
      "buffer": 0,
      "byteLength": 745856,
      "byteOffset": 1364896,
      "byteStride": 16,
      "name": "floatBufferViews",
      "target": 34962
    },
    {
      "buffer": 0,
      "byteLength": 4928,
      "byteOffset": 2110752,
      "name": "floatBufferViews"
    },
    {
      "buffer": 0,
      "byteLength": 7472,
      "byteOffset": 2115680,
      "name": "floatBufferViews"
    },
    {
      "buffer": 0,
      "byteLength": 4764,
      "byteOffset": 2123152,
      "byteStride": 12,
      "name": "floatBufferViews"
    },
    {
      "buffer": 0,
      "byteLength": 23536,
      "byteOffset": 2127916,
      "byteStride": 16,
      "name": "floatBufferViews"
    }
  ],
  "buffers": [
    {
      "byteLength": 2151452,
      "uri": "scene.bin"
    }
  ],
  "materials": [
    {
      "doubleSided": true,
      "name": "Material",
      "pbrMetallicRoughness": {
        "baseColorFactor": [
          0.8,
          0.8,
          0.8,
          1.0
        ],
        "metallicFactor": 0.0,
        "roughnessFactor": 0.8211145618000169
      }
    }
  ],
  "meshes": [
    {
      "name": "Eagle.007_Material_0",
      "primitives": [
        {
          "attributes": {
            "COLOR_0": 2,
            "JOINTS_0": 6,
            "NORMAL": 1,
            "POSITION": 0,
            "TEXCOORD_0": 3,
            "WEIGHTS_0": 7
          },
          "indices": 4,
          "material": 0,
          "mode": 4
        }
      ]
    }
  ],
  "nodes": [
    {
      "children": [
        1
      ],
      "matrix": [
        0.07395203411579132,
        0.0,
        0.0,
        0.0,
        0.0,
        1.642065019864332e-17,
        -0.07395203411579132,
        0.0,
        0.0,
        0.07395203411579132,
        1.642065019864332e-17,
        0.0,
        0.0,
        0.0,
        0.0,
        1.0
      ],
      "name": "Sketchfab_model"
    },
    {
      "children": [
        2
      ],
      "matrix": [
        0.009999999776482582,
        0.0,
        0.0,
        0.0,
        0.0,
        0.0,
        0.009999999776482582,
        0.0,
        0.0,
        -0.009999999776482582,
        0.0,
        0.0,
        0.0,
        0.0,
        0.0,
        1.0
      ],
      "name": "eagle.fbx"
    },
    {
      "children": [
        3
      ],
      "name": "Object_2"
    },
    {
      "children": [
        4,
        85
      ],
      "name": "RootNode"
    },
    {
      "children": [
        5
      ],
      "name": "amature",
      "rotation": [
        -0.7071068286895752,
        0.0,
        0.0,
        0.7071067094802856
      ],
      "scale": [
        100.0,
        100.0,
        100.0
      ]
    },
    {
      "children": [
        6,
        84,
        83
      ],
      "name": "Object_5"
    },
    {
      "children": [
        7
      ],
      "name": "_rootJoint"
    },
    {
      "children": [
        8,
        47,
        50,
        53,
        67,
        74,
        81
      ],
      "name": "Bone.027_01",
      "rotation": [
        0.9886417984962463,
        3.1170452530204784e-07,
        -1.0174807130169938e-06,
        -0.15029165148735046
      ],
      "scale": [
        1.0,
        1.0,
        0.999999463558197
      ],
      "translation": [
        -6.310984872470726e-07,
        1.9368267059326172,
        5.78171968460083
      ]
    },
    {
      "children": [
        9,
        15,
        31
      ],
      "name": "Bone.005_02",
      "rotation": [
        -0.05227368697524071,
        8.749057451495901e-05,
        -4.471320153243141e-06,
        0.9986327886581421
      ],
      "scale": [
        1.0,
        0.9999999403953552,
        1.0
      ],
      "translation": [
        -1.0231815394945443e-12,
        1.3606919050216675,
        3.278259725902899e-07
      ]
    },
    {
      "children": [
        10
      ],
      "name": "rr_03",
      "rotation": [
        -0.22846537828445435,
        -8.885058196028695e-05,
        -1.8720911612035707e-05,
        0.9735520482063293
      ],
      "scale": [
        1.0,
        0.9999999403953552,
        1.0000003576278687
      ],
      "translation": [
        1.397211235598661e-10,
        0.668380618095398,
        -1.0384246706962585e-06
      ]
    },
    {
      "children": [
        11
      ],
      "name": "Bone.023_04",
      "rotation": [
        0.03172900900244713,
        7.758071092212049e-07,
        -1.89771981240483e-07,
        0.9994965195655823
      ],
      "scale": [
        1.0,
        1.0000001192092896,
        0.9999998211860657
      ],
      "translation": [
        2.9274360713316128e-12,
        1.161436676979065,
        -1.1920961924261064e-06
      ]
    },
    {
      "children": [
        12
      ],
      "name": "Bone.002_05",
      "rotation": [
        -0.0007397165754809976,
        2.543036714541813e-07,
        -1.4911178425336402e-07,
        0.9999998211860657
      ],
      "scale": [
        1.0,
        0.9999998807907104,
        0.9999997019767761
      ],
      "translation": [
        -9.947598300641403e-12,
        0.6110044717788696,
        8.642639386380324e-07
      ]
    },
    {
      "children": [
        13
      ],
      "name": "Bone.021_06",
      "rotation": [
        -0.009192543104290962,
        7.844180345273344e-07,
        9.51314191866004e-08,
        0.9999577403068542
      ],
      "scale": [
        1.0,
        1.0000001192092896,
        0.9999998807907104
      ],
      "translation": [
        -5.059064278611913e-12,
        0.7323476076126099,
        8.046570769693062e-07
      ]
    },
    {
      "children": [
        14
      ],
      "name": "Bone.004_07",
      "rotation": [
        0.22145068645477295,
        -1.2788698768417817e-05,
        -4.129686658416176e-06,
        0.9751715660095215
      ],
      "scale": [
        1.0,
        0.9999994039535522,
        1.000000238418579
      ],
      "translation": [
        -5.002220859751105e-12,
        0.3690534830093384,
        -1.1921446230189758e-07
      ]
    },
    {
      "name": "Bone.004_end_049",
      "rotation": [
        6.938893903907228e-17,
        -1.9058241313221758e-21,
        1.2705494208814505e-21,
        1.0
      ],
      "translation": [
        0.0,
        1.0070161819458008,
        0.0
      ]
    },
    {
      "children": [
        16
      ],
      "name": "WR.Left_08",
      "rotation": [
        0.7279847264289856,
        0.6130214929580688,
        -0.06055117025971413,
        -0.30095916986465454
      ],
      "scale": [
        0.9999999403953552,
        1.0,
        1.0
      ],
      "translation": [
        0.17354752123355865,
        1.096492052078247,
        -0.5539413094520569
      ]
    },
    {
      "children": [
        17
      ],
      "name": "WR.Left.009_09",
      "rotation": [
        -0.3351132571697235,
        0.2503008246421814,
        -0.24147464334964752,
        0.875636100769043
      ],
      "translation": [
        2.980232238769531e-07,
        0.967606246471405,
        2.086162567138672e-07
      ]
    },
    {
      "children": [
        18
      ],
      "name": "WR.Left.001_010",
      "rotation": [
        -0.22682416439056396,
        0.09862728416919708,
        -0.4790239632129669,
        0.8422347903251648
      ],
      "scale": [
        0.9999999403953552,
        0.9999998211860657,
        0.9999998807907104
      ],
      "translation": [
        -1.9371509552001953e-07,
        1.4576787948608398,
        2.9802322387695313e-08
      ]
    },
    {
      "children": [
        19,
        21,
        23,
        25,
        27,
        29
      ],
      "name": "WR.Left.002_011",
      "rotation": [
        0.0160443764179945,
        -0.116910919547081,
        -0.09886275976896286,
        0.9880792498588562
      ],
      "scale": [
        0.9999998807907104,
        0.9999998807907104,
        1.0
      ],
      "translation": [
        -1.4528632164001465e-07,
        2.7459053993225098,
        1.4901161193847656e-08
      ]
    },
    {
      "children": [
        20
      ],
      "name": "WR.Left.003_012",
      "rotation": [
        0.621900737285614,
        0.06921982765197754,
        -0.6075750589370728,
        -0.4891836643218994
      ],
      "scale": [
        1.0000001192092896,
        1.0,
        1.0
      ],
      "translation": [
        -0.6505961418151855,
        0.3597983419895172,
        -0.7656652331352234
      ]
    },
    {
      "name": "WR.Left.003_end_050",
      "rotation": [
        -7.703719777548943e-34,
        2.7755575615628914e-17,
        2.7755575615628914e-17,
        1.0
      ],
      "translation": [
        8.881784197001252e-16,
        2.719135284423828,
        4.440892098500626e-16
      ]
    },
    {
      "children": [
        22
      ],
      "name": "WR.Left.004_013",
      "rotation": [
        -0.561790943145752,
        -0.0800769180059433,
        0.5313447117805481,
        0.6290082931518555
      ],
      "scale": [
        1.0000001192092896,
        1.0000001192092896,
        1.0
      ],
      "translation": [
        -0.8396968245506287,
        1.0286660194396973,
        -0.9899898171424866
      ]
    },
    {
      "name": "WR.Left.004_end_051",
      "rotation": [
        -2.0816681711721685e-17,
        -3.5561831257524545e-17,
        -6.938893903907228e-18,
        1.0
      ],
      "translation": [
        0.0,
        3.359818935394287,
        0.0
      ]
    },
    {
      "children": [
        24
      ],
      "name": "WR.Left.005_014",
      "rotation": [
        -0.4861415922641754,
        -0.08070367574691772,
        0.4484129548072815,
        0.745707094669342
      ],
      "scale": [
        1.0000001192092896,
        1.0,
        1.0000001192092896
      ],
      "translation": [
        -0.7789468169212341,
        1.7112901210784912,
        -0.9330724477767944
      ]
    },
    {
      "name": "WR.Left.005_end_052",
      "rotation": [
        1.3877787807814457e-17,
        -3.469446951953614e-18,
        -1.3877787807814457e-17,
        1.0
      ],
      "translation": [
        4.440892098500626e-16,
        3.889569044113159,
        -4.440892098500626e-16
      ]
    },
    {
      "children": [
        26
      ],
      "name": "WR.Left.006_015",
      "rotation": [
        -0.4002874195575714,
        -0.07611548900604248,
        0.3595806360244751,
        0.839451253414154
      ],
      "scale": [
        1.0,
        1.0000001192092896,
        1.0000001192092896
      ],
      "translation": [
        -0.6414921283721924,
        2.3919625282287598,
        -0.7553910613059998
      ]
    },
    {
      "name": "WR.Left.006_end_053",
      "rotation": [
        8.326672684688674e-17,
        -2.7755575615628914e-17,
        -5.551115123125783e-17,
        1.0
      ],
      "translation": [
        -4.440892098500626e-16,
        5.099728107452393,
        2.220446049250313e-16
      ]
    },
    {
      "children": [
        28
      ],
      "name": "WR.Left.007_016",
      "rotation": [
        -0.31478625535964966,
        -0.0661468505859375,
        0.2765001952648163,
        0.9055836796760559
      ],
      "scale": [
        1.0,
        0.9999998807907104,
        1.0
      ],
      "translation": [
        -0.14088021218776703,
        2.7005648612976074,
        -0.12150409817695618
      ]
    },
    {
      "name": "WR.Left.007_end_054",
      "rotation": [
        0.0,
        9.71445146547012e-17,
        0.0,
        1.0
      ],
      "translation": [
        4.440892098500626e-16,
        6.853797912597656,
        2.220446049250313e-16
      ]
    },
    {
      "children": [
        30
      ],
      "name": "WR.Left.010_017",
      "rotation": [
        -0.24359232187271118,
        -0.04869656264781952,
        0.21644937992095947,
        0.944161593914032
      ],
      "scale": [
        1.0,
        1.0000001192092896,
        1.0000001192092896
      ],
      "translation": [
        0.3529289960861206,
        2.705402135848999,
        0.41992446780204773
      ]
    },
    {
      "name": "WR.Left.010_end_055",
      "rotation": [
        2.7755575615628914e-17,
        -1.5407439555097887e-33,
        -5.551115123125783e-17,
        1.0
      ],
      "translation": [
        6.661338147750939e-16,
        6.023080348968506,
        -4.440892098500626e-16
      ]
    },
    {
      "children": [
        32
      ],
      "name": "WR.Right_018",
      "rotation": [
        0.7279744744300842,
        -0.6129691004753113,
        0.06067713722586632,
        -0.3010653555393219
      ],
      "scale": [
        0.9999999403953552,
        1.0000001192092896,
        1.0
      ],
      "translation": [
        -0.17335592210292816,
        1.096492052078247,
        -0.5540013909339905
      ]
    },
    {
      "children": [
        33
      ],
      "name": "WR.Right.009_019",
      "rotation": [
        -0.3351133465766907,
        -0.2503008544445038,
        0.24147458374500275,
        0.875636100769043
      ],
      "translation": [
        -2.5331974029541016e-07,
        0.9676059484481812,
        2.384185791015625e-07
      ]
    },
    {
      "children": [
        34
      ],
      "name": "WR.Right.001_020",
      "rotation": [
        -0.2249584048986435,
        -0.09746431559324265,
        0.4776906669139862,
        0.8436267375946045
      ],
      "scale": [
        1.0,
        0.9999998211860657,
        1.0000001192092896
      ],
      "translation": [
        9.387731552124023e-07,
        1.4576787948608398,
        2.980232238769531e-07
      ]
    },
    {
      "children": [
        35,
        37,
        39,
        41,
        43,
        45
      ],
      "name": "WR.Right.002_021",
      "rotation": [
        0.01633935235440731,
        0.11694741994142532,
        0.101029172539711,
        0.9878510236740112
      ],
      "scale": [
        0.9999998211860657,
        0.9999998211860657,
        0.9999998211860657
      ],
      "translation": [
        3.725290298461914e-09,
        2.7459044456481934,
        -1.1175870895385742e-07
      ]
    },
    {
      "children": [
        36
      ],
      "name": "WR.Right.003_022",
      "rotation": [
        0.621900737285614,
        -0.06921981275081635,
        0.6075752377510071,
        -0.489183634519577
      ],
      "scale": [
        0.9999998211860657,
        0.9999998807907104,
        0.9999997615814209
      ],
      "translation": [
        0.6505960822105408,
        0.35979920625686646,
        -0.76566481590271
      ]
    },
    {
      "name": "WR.Right.003_end_056",
      "rotation": [
        -5.551115123125783e-17,
        -6.245004513516506e-17,
        2.7755575615628914e-17,
        1.0
      ],
      "translation": [
        4.440892098500626e-16,
        2.719135284423828,
        -4.440892098500626e-16
      ]
    },
    {
      "children": [
        38
      ],
      "name": "WR.Right.004_023",
      "rotation": [
        -0.561790943145752,
        0.08007702976465225,
        -0.5313448905944824,
        0.6290082335472107
      ],
      "scale": [
        1.0,
        0.9999998211860657,
        0.9999998211860657
      ],
      "translation": [
        0.8396968841552734,
        1.0286664962768555,
        -0.9899894595146179
      ]
    },
    {
      "name": "WR.Right.004_end_057",
      "rotation": [
        -1.3877787807814457e-17,
        -3.469446951953614e-18,
        -1.3877787807814457e-17,
        1.0
      ],
      "translation": [
        0.0,
        3.359818935394287,
        2.220446049250313e-16
      ]
    },
    {
      "children": [
        40
      ],
      "name": "WR.Right.005_024",
      "rotation": [
        -0.48614153265953064,
        0.0807037502527237,
        -0.4484129548072815,
        0.7457071542739868
      ],
      "scale": [
        1.0,
        1.0,
        0.9999999403953552
      ],
      "translation": [
        0.7789471745491028,
        1.711290717124939,
        -0.9330719709396362
      ]
    },
    {
      "name": "WR.Right.005_end_058",
      "rotation": [
        6.938893903907228e-18,
        -2.5153490401663703e-17,
        1.7453740121009325e-34,
        1.0
      ],
      "translation": [
        0.0,
        3.889569044113159,
        0.0
      ]
    },
    {
      "children": [
        42
      ],
      "name": "WR.Right.006_025",
      "rotation": [
        -0.400287389755249,
        0.07611555606126785,
        -0.3595806658267975,
        0.839451253414154
      ],
      "scale": [
        0.9999998807907104,
        0.9999998807907104,
        0.9999999403953552
      ],
      "translation": [
        0.6414919495582581,
        2.391962766647339,
        -0.7553908228874207
      ]
    },
    {
      "name": "WR.Right.006_end_059",
      "rotation": [
        -2.7755575615628914e-17,
        1.0408340855860843e-16,
        2.8888949165808538e-33,
        1.0
      ],
      "translation": [
        0.0,
        5.099728107452393,
        2.220446049250313e-16
      ]
    },
    {
      "children": [
        44
      ],
      "name": "WR.Right.007_026",
      "rotation": [
        -0.3147863447666168,
        0.06614696234464645,
        -0.2765001356601715,
        0.9055836796760559
      ],
      "scale": [
        1.0,
        0.9999999403953552,
        1.0000001192092896
      ],
      "translation": [
        0.14088012278079987,
        2.7005650997161865,
        -0.12150392681360245
      ]
    },
    {
      "name": "WR.Right.007_end_060",
      "rotation": [
        2.7755575615628914e-17,
        8.326672684688674e-17,
        2.7755575615628914e-17,
        1.0
      ],
      "translation": [
        4.440892098500626e-16,
        6.853797912597656,
        2.220446049250313e-16
      ]
    },
    {
      "children": [
        46
      ],
      "name": "WR.Right.010_027",
      "rotation": [
        -0.24359232187271118,
        0.04869654402136803,
        -0.2164492905139923,
        0.9441617131233215
      ],
      "scale": [
        0.9999998211860657,
        0.9999998211860657,
        1.0
      ],
      "translation": [
        -0.35292908549308777,
        2.705402135848999,
        0.41992461681365967
      ]
    },
    {
      "name": "WR.Right.010_end_061",
      "rotation": [
        2.7755575615628914e-17,
        -5.551115123125783e-17,
        -1.1102230246251565e-16,
        1.0
      ],
      "translation": [
        -2.220446049250313e-16,
        6.023080348968506,
        0.0
      ]
    },
    {
      "children": [
        48
      ],
      "name": "leg1.Left_028",
      "rotation": [
        0.9967688322067261,
        0.05223233252763748,
        -0.017866022884845734,
        0.05834818631410599
      ],
      "scale": [
        1.0,
        1.0000003576278687,
        1.000000238418579
      ],
      "translation": [
        1.1146093606948853,
        0.6826819181442261,
        0.8798012137413025
      ]
    },
    {
      "children": [
        49
      ],
      "name": "leg2.Left_029",
      "rotation": [
        -0.36352407932281494,
        -0.013690127991139889,
        0.09855744242668152,
        0.9262555241584778
      ],
      "scale": [
        0.9999998807907104,
        1.0,
        1.000000238418579
      ],
      "translation": [
        -6.332993507385254e-08,
        1.8827567100524902,
        2.3096799850463867e-07
      ]
    },
    {
      "name": "leg2.Left_end_062",
      "rotation": [
        -2.7755575615628914e-17,
        6.938893903907228e-18,
        1.925929944387236e-34,
        1.0
      ],
      "translation": [
        0.0,
        1.715226411819458,
        0.0
      ]
    },
    {
      "children": [
        51
      ],
      "name": "leg1.Right_030",
      "rotation": [
        0.9967690706253052,
        -0.05222909897565842,
        0.017863474786281586,
        0.05834751948714256
      ],
      "scale": [
        1.0000005960464478,
        0.9999997615814209,
        0.9999998807907104
      ],
      "translation": [
        -1.1146057844161987,
        0.6826822757720947,
        0.8798055052757263
      ]
    },
    {
      "children": [
        52
      ],
      "name": "leg2.Right_031",
      "rotation": [
        -0.36352601647377014,
        0.013691543601453304,
        -0.09854458272457123,
        0.9262561202049255
      ],
      "scale": [
        1.0,
        0.9999997019767761,
        0.9999997019767761
      ],
      "translation": [
        -6.332993507385254e-08,
        1.8827563524246216,
        -1.4901161193847656e-07
      ]
    },
    {
      "name": "leg2.Right_end_063",
      "rotation": [
        0.0,
        -3.469446951953614e-18,
        0.0,
        1.0
      ],
      "translation": [
        -2.220446049250313e-16,
        1.715226411819458,
        0.0
      ]
    },
    {
      "children": [
        54
      ],
      "name": "Bone.026_032",
      "rotation": [
        5.075722128822235e-06,
        0.11124945431947708,
        0.9937925338745117,
        -1.2413312155956646e-08
      ],
      "translation": [
        -3.8588814277318306e-07,
        -1.1920960218958498e-07,
        4.1723464505594166e-07
      ]
    },
    {
      "children": [
        55
      ],
      "name": "Bone.025_033",
      "rotation": [
        0.08963043987751007,
        8.708905738785688e-07,
        -6.504370162474515e-07,
        0.9959750771522522
      ],
      "scale": [
        1.0,
        0.9999999403953552,
        0.9999999403953552
      ],
      "translation": [
        -2.4442670110147446e-12,
        1.197563886642456,
        5.9599521762265795e-08
      ]
    },
    {
      "children": [
        56
      ],
      "name": "Bone.024_034",
      "rotation": [
        0.14781774580478668,
        6.861768611088337e-07,
        -8.287604487122735e-07,
        0.9890146255493164
      ],
      "scale": [
        1.0,
        1.0,
        0.9999999403953552
      ],
      "translation": [
        -2.5863755581667647e-12,
        0.7608957290649414,
        1.7881146163745143e-07
      ]
    },
    {
      "children": [
        57,
        59,
        61,
        63,
        65
      ],
      "name": "Bone.001_035",
      "rotation": [
        -0.018993692472577095,
        0.36094364523887634,
        -0.007352880667895079,
        0.9323651790618896
      ],
      "scale": [
        0.9999998211860657,
        0.9999999403953552,
        1.0
      ],
      "translation": [
        -2.0889956431346945e-12,
        0.5769041776657104,
        -1.0480505352461478e-12
      ]
    },
    {
      "children": [
        58
      ],
      "name": "Bone.016_036",
      "rotation": [
        0.009024103172123432,
        0.9322680234909058,
        -0.023310977965593338,
        0.360903799533844
      ],
      "scale": [
        0.9999998807907104,
        1.0,
        0.9999997615814209
      ],
      "translation": [
        3.0985128773863835e-07,
        0.995469331741333,
        5.525346296053613e-07
      ]
    },
    {
      "name": "Bone.016_end_064",
      "rotation": [
        2.7755575615628914e-17,
        8.602678370551488e-23,
        -2.6469779601696886e-23,
        1.0
      ],
      "translation": [
        8.470329472543003e-22,
        4.8925299644470215,
        0.0
      ]
    },
    {
      "children": [
        60
      ],
      "name": "Bone.017_037",
      "rotation": [
        -0.10601819306612015,
        0.9353022575378418,
        -0.029763303697109222,
        0.33627963066101074
      ],
      "scale": [
        0.9999999403953552,
        0.9999998807907104,
        1.0
      ],
      "translation": [
        3.0985128773863835e-07,
        0.995469331741333,
        5.525346296053613e-07
      ]
    },
    {
      "name": "Bone.017_end_065",
      "translation": [
        0.0,
        4.089901447296143,
        8.881784197001252e-16
      ]
    },
    {
      "children": [
        62
      ],
      "name": "Bone.018_038",
      "rotation": [
        -0.20695728063583374,
        0.9268288016319275,
        -0.051999013870954514,
        0.3089548945426941
      ],
      "scale": [
        0.9999999403953552,
        1.000000238418579,
        1.0
      ],
      "translation": [
        3.0985128773863835e-07,
        0.995469331741333,
        5.525346296053613e-07
      ]
    },
    {
      "name": "Bone.018_end_066",
      "rotation": [
        2.7755575615628914e-17,
        2.7755575615628914e-17,
        -2.7755575615628914e-17,
        1.0
      ],
      "translation": [
        4.440892098500626e-16,
        3.7903921604156494,
        8.881784197001252e-16
      ]
    },
    {
      "children": [
        64
      ],
      "name": "Bone.019_039",
      "rotation": [
        0.09842336922883987,
        0.9179309606552124,
        0.04938098043203354,
        0.3811526298522949
      ],
      "scale": [
        1.0000001192092896,
        0.9999999403953552,
        1.0
      ],
      "translation": [
        3.0985128773863835e-07,
        0.995469331741333,
        5.525346296053613e-07
      ]
    },
    {
      "name": "Bone.019_end_067",
      "rotation": [
        -1.925929944387236e-34,
        -6.938893903907228e-18,
        -2.7755575615628914e-17,
        1.0
      ],
      "translation": [
        4.440892098500626e-16,
        4.089902877807617,
        -8.881784197001252e-16
      ]
    },
    {
      "children": [
        66
      ],
      "name": "Bone.020_040",
      "rotation": [
        0.18802319467067719,
        0.8932673931121826,
        0.10090780258178711,
        0.39564916491508484
      ],
      "scale": [
        0.9999999403953552,
        1.0,
        0.9999999403953552
      ],
      "translation": [
        3.0985128773863835e-07,
        0.995469331741333,
        5.525346296053613e-07
      ]
    },
    {
      "name": "Bone.020_end_068",
      "rotation": [
        -2.7755575615628914e-17,
        -1.3877787807814457e-17,
        2.7755575615628914e-17,
        1.0
      ],
      "translation": [
        -4.440892098500626e-16,
        3.790391683578491,
        0.0
      ]
    },
    {
      "children": [
        68,
        70,
        72
      ],
      "name": "footik.Left_041",
      "rotation": [
        0.9226680397987366,
        6.428771825994772e-07,
        -3.2367818221246125e-06,
        -0.38559553027153015
      ],
      "scale": [
        1.0,
        1.0,
        0.9999999403953552
      ],
      "translation": [
        1.1850190162658691,
        -2.283599615097046,
        2.399306535720825
      ]
    },
    {
      "children": [
        69
      ],
      "name": "foot1.Left_042",
      "rotation": [
        -0.38827183842658997,
        -0.00371947162784636,
        -0.03547545522451401,
        0.9208543300628662
      ],
      "scale": [
        1.0,
        1.0,
        0.9999999403953552
      ],
      "translation": [
        5.87824615649879e-08,
        2.030978549782958e-07,
        -2.8616977942874655e-07
      ]
    },
    {
      "name": "foot1.Left_end_069",
      "rotation": [
        2.7755575615628914e-17,
        0.0,
        0.0,
        1.0
      ],
      "translation": [
        2.220446049250313e-16,
        0.3947523236274719,
        -4.440892098500626e-16
      ]
    },
    {
      "children": [
        71
      ],
      "name": "foot2.Left_043",
      "rotation": [
        -0.8122637867927551,
        1.2249823839738383e-06,
        2.0143038454989437e-06,
        0.5832902789115906
      ],
      "scale": [
        1.0,
        1.000012993812561,
        1.0000017881393433
      ],
      "translation": [
        0.1820283681154251,
        -0.07891348749399185,
        -0.0466439351439476
      ]
    },
    {
      "name": "foot2.Left_end_070",
      "rotation": [
        -2.7755575615628914e-17,
        -3.3087224502121107e-23,
        -1.3234889800848443e-23,
        1.0
      ],
      "translation": [
        2.220446049250313e-16,
        0.625006377696991,
        8.881784197001252e-16
      ]
    },
    {
      "children": [
        73
      ],
      "name": "foot3.Left_044",
      "rotation": [
        0.07316511124372482,
        -0.4194355905056,
        0.9041951298713684,
        -0.033937908709049225
      ],
      "scale": [
        1.0,
        0.9999964833259583,
        0.9999988675117493
      ],
      "translation": [
        -0.18255312740802765,
        -0.08713272213935852,
        -0.02847207710146904
      ]
    },
    {
      "name": "foot3.Left_end_071",
      "rotation": [
        0.0,
        0.0,
        6.938893903907228e-18,
        1.0
      ],
      "translation": [
        4.440892098500626e-16,
        0.6250056624412537,
        0.0
      ]
    },
    {
      "children": [
        75,
        77,
        79
      ],
      "name": "footik.Right_045",
      "rotation": [
        0.9226680397987366,
        -4.254157829564065e-06,
        -2.4609894353488926e-06,
        -0.38559553027153015
      ],
      "scale": [
        1.0,
        1.0000001192092896,
        1.0
      ],
      "translation": [
        -1.185031533241272,
        -2.283599376678467,
        2.399311065673828
      ]
    },
    {
      "children": [
        76
      ],
      "name": "foot1.Right_046",
      "rotation": [
        -0.3882715702056885,
        0.003719171741977334,
        0.035478342324495316,
        0.9208543300628662
      ],
      "scale": [
        1.0,
        1.0,
        0.9999998211860657
      ],
      "translation": [
        5.6663338909856975e-08,
        -4.552821337711066e-07,
        1.9411027096793987e-07
      ]
    },
    {
      "name": "foot1.Right_end_072",
      "rotation": [
        2.7755575615628914e-17,
        -5.204170427930421e-18,
        -3.469446951953614e-18,
        1.0
      ],
      "translation": [
        -1.1102230246251565e-16,
        0.3947523236274719,
        0.0
      ]
    },
    {
      "children": [
        78
      ],
      "name": "foot3.Right_047",
      "rotation": [
        -0.0731564313173294,
        -0.419435977935791,
        0.9041954874992371,
        0.033942811191082
      ],
      "scale": [
        0.9999998211860657,
        0.9999828338623047,
        0.9999940395355225
      ],
      "translation": [
        0.1825529783964157,
        -0.08713278919458389,
        -0.028473222628235817
      ]
    },
    {
      "name": "foot3.Right_end_073",
      "rotation": [
        -2.7755575615628914e-17,
        4.163336342344337e-17,
        -6.938893903907228e-18,
        1.0
      ],
      "translation": [
        0.0,
        0.6250063180923462,
        0.0
      ]
    },
    {
      "children": [
        80
      ],
      "name": "foot2.Right_00",
      "rotation": [
        -0.8122638463973999,
        -7.79779782078549e-07,
        -1.7771536704458413e-06,
        0.583290159702301
      ],
      "scale": [
        1.0,
        1.0000131130218506,
        1.0000020265579224
      ],
      "translation": [
        -0.1820286512374878,
        -0.07891331613063812,
        -0.046642426401376724
      ]
    },
    {
      "name": "foot2.Right_end_074",
      "rotation": [
        -2.7755575615628914e-17,
        -1.5881867761018131e-22,
        -2.117582368135751e-22,
        1.0
      ],
      "translation": [
        2.220446049250313e-16,
        0.6250072121620178,
        8.881784197001252e-16
      ]
    },
    {
      "children": [
        82
      ],
      "name": "Bone.003_048",
      "rotation": [
        0.008855369873344898,
        1.3743589022396918e-07,
        -2.156482281634453e-08,
        0.9999607801437378
      ],
      "translation": [
        -3.2099569580168463e-06,
        5.507051467895508,
        -1.5995728969573975
      ]
    },
    {
      "name": "Bone.003_end_075",
      "rotation": [
        -2.7755575615628914e-17,
        -1.5881867761018131e-22,
        5.293955920339377e-23,
        1.0
      ],
      "translation": [
        -1.6940658945086007e-21,
        1.1688472032546997,
        8.881784197001252e-16
      ]
    },
    {
      "matrix": [
        100.00000000045297,
        -1.122678539760072e-11,
        -1.990311995075933e-12,
        0.0,
        -1.9903122209794243e-12,
        -2.182009457192708e-06,
        -99.99999904251129,
        0.0,
        1.122678463327336e-11,
        99.99999357921534,
        -2.1820093379830723e-06,
        0.0,
        -1.2635930149440533e-10,
        -2.3177493062576104e-05,
        -3.152347164814273e-05,
        1.0
      ],
      "name": "Object_83"
    },
    {
      "mesh": 0,
      "name": "Object_84",
      "skin": 0
    },
    {
      "name": "Eagle.007",
      "rotation": [
        -0.7071068286895752,
        0.0,
        0.0,
        0.7071067094802856
      ],
      "scale": [
        100.0,
        100.0,
        100.0
      ]
    }
  ],
  "scene": 0,
  "scenes": [
    {
      "name": "Sketchfab_Scene",
      "nodes": [
        0
      ]
    }
  ],
  "skins": [
    {
      "inverseBindMatrices": 5,
      "joints": [
        6,
        7,
        8,
        9,
        10,
        11,
        12,
        13,
        14,
        15,
        16,
        17,
        18,
        19,
        20,
        21,
        22,
        23,
        24,
        25,
        26,
        27,
        28,
        29,
        30,
        31,
        32,
        33,
        34,
        35,
        36,
        37,
        38,
        39,
        40,
        41,
        42,
        43,
        44,
        45,
        46,
        47,
        48,
        49,
        50,
        51,
        52,
        53,
        54,
        55,
        56,
        57,
        58,
        59,
        60,
        61,
        62,
        63,
        64,
        65,
        66,
        67,
        68,
        69,
        70,
        71,
        72,
        73,
        74,
        75,
        76,
        77,
        78,
        79,
        80,
        81,
        82
      ],
      "skeleton": 6
    }
  ]
}
