{
  "accessors": [
    {
      "bufferView": 2,
      "componentType": 5126,
      "count": 502,
      "max": [
        0.8861640095710754,
        -3.801461935043335,
        3.4360039234161377
      ],
      "min": [
        -0.8861640095710754,
        -6.131947040557861,
        2.436033010482788
      ],
      "type": "VEC3"
    },
    {
      "bufferView": 2,
      "byteOffset": 6024,
      "componentType": 5126,
      "count": 502,
      "max": [
        0.9879287481307983,
        0.61346834897995,
        0.7700322866439819
      ],
      "min": [
        -0.9879287481307983,
        -0.9996237754821777,
        -0.999993085861206
      ],
      "type": "VEC3"
    },
    {
      "bufferView": 3,
      "componentType": 5126,
      "count": 502,
      "max": [
        0.999997615814209,
        0.9997954964637756,
        0.6735703349113464,
        1.0
      ],
      "min": [
        -1.0,
        -0.9999809861183167,
        -0.9993916153907776,
        -1.0
      ],
      "type": "VEC4"
    },
    {
      "bufferView": 1,
      "componentType": 5126,
      "count": 502,
      "max": [
        0.5548040270805359,
        0.4624660015106201
      ],
      "min": [
        0.2749750018119812,
        0.06328599900007248
      ],
      "type": "VEC2"
    },
    {
      "bufferView": 0,
      "componentType": 5125,
      "count": 2064,
      "type": "SCALAR"
    },
    {
      "bufferView": 2,
      "byteOffset": 12048,
      "componentType": 5126,
      "count": 384,
      "max": [
        1.4877209663391113,
        -0.7712770104408264,
        2.0807158946990967
      ],
      "min": [
        -1.48772394657135,
        -1.620568037033081,
        1.6008590459823608
      ],
      "type": "VEC3"
    },
    {
      "bufferView": 2,
      "byteOffset": 16656,
      "componentType": 5126,
      "count": 384,
      "max": [
        6.600003689527512e-05,
        0.9995505213737488,
        0.999550461769104
      ],
      "min": [
        -6.700002995785326e-05,
        -0.9995506405830383,
        -0.999550461769104
      ],
      "type": "VEC3"
    },
    {
      "bufferView": 1,
      "byteOffset": 4016,
      "componentType": 5126,
      "count": 384,
      "max": [
        0.0,
        0.0
      ],
      "min": [
        0.0,
        0.0
      ],
      "type": "VEC2"
    },
    {
      "bufferView": 0,
      "byteOffset": 8256,
      "componentType": 5125,
      "count": 1152,
      "type": "SCALAR"
    },
    {
      "bufferView": 2,
      "byteOffset": 21264,
      "componentType": 5126,
      "count": 9693,
      "max": [
        19.360441207885742,
        5.278151035308838,
        15.394219398498535
      ],
      "min": [
        -19.360441207885742,
        -10.820428848266602,
        -3.2574150562286377
      ],
      "type": "VEC3"
    },
    {
      "bufferView": 2,
      "byteOffset": 137580,
      "componentType": 5126,
      "count": 9693,
      "max": [
        1.0,
        1.0,
        1.0
      ],
      "min": [
        -1.0,
        -1.0,
        -1.0
      ],
      "type": "VEC3"
    },
    {
      "bufferView": 3,
      "byteOffset": 8032,
      "componentType": 5126,
      "count": 9693,
      "max": [
        1.0,
        1.0,
        1.0,
        1.0
      ],
      "min": [
        -1.0,
        -1.0,
        -1.0,
        -1.0
      ],
      "type": "VEC4"
    },
    {
      "bufferView": 1,
      "byteOffset": 7088,
      "componentType": 5126,
      "count": 9693,
      "max": [
        0.998091995716095,
        0.9995610117912292
      ],
      "min": [
        0.0012100000167265534,
        0.0019369999645277858
      ],
      "type": "VEC2"
    },
    {
      "bufferView": 0,
      "byteOffset": 12864,
      "componentType": 5125,
      "count": 45960,
      "type": "SCALAR"
    },
    {
      "bufferView": 2,
      "byteOffset": 253896,
      "componentType": 5126,
      "count": 9929,
      "max": [
        7.872913837432861,
        6.1435160636901855,
        8.667888641357422
      ],
      "min": [
        -7.872913837432861,
        -12.481023788452148,
        -3.9032719135284424
      ],
      "type": "VEC3"
    },
    {
      "bufferView": 2,
      "byteOffset": 373044,
      "componentType": 5126,
      "count": 9929,
      "max": [
        1.0,
        1.0,
        1.0
      ],
      "min": [
        -1.0,
        -1.0,
        -1.0
      ],
      "type": "VEC3"
    },
    {
      "bufferView": 3,
      "byteOffset": 163120,
      "componentType": 5126,
      "count": 9929,
      "max": [
        1.0,
        0.9998926520347595,
        1.0,
        1.0
      ],
      "min": [
        -1.0,
        -0.9999996423721313,
        -1.0,
        -1.0
      ],
      "type": "VEC4"
    },
    {
      "bufferView": 1,
      "byteOffset": 84632,
      "componentType": 5126,
      "count": 9929,
      "max": [
        0.9984380006790161,
        0.9982069730758667
      ],
      "min": [
        0.0012100000167265534,
        0.0020099999383091927
      ],
      "type": "VEC2"
    },
    {
      "bufferView": 0,
      "byteOffset": 196704,
      "componentType": 5125,
      "count": 46188,
      "type": "SCALAR"
    },
    {
      "bufferView": 2,
      "byteOffset": 492192,
      "componentType": 5126,
      "count": 2853,
      "max": [
        6.5343499183654785,
        2.6184189319610596,
        10.279450416564941
      ],
      "min": [
        -6.5343499183654785,
        -5.67706298828125,
        1.8913609981536865
      ],
      "type": "VEC3"
    },
    {
      "bufferView": 2,
      "byteOffset": 526428,
      "componentType": 5126,
      "count": 2853,
      "max": [
        1.0,
        1.0,
        1.0
      ],
      "min": [
        -1.0,
        -1.0,
        -1.0
      ],
      "type": "VEC3"
    },
    {
      "bufferView": 3,
      "byteOffset": 321984,
      "componentType": 5126,
      "count": 2853,
      "max": [
        0.9998949766159058,
        1.0,
        1.0,
        1.0
      ],
      "min": [
        -0.9998949766159058,
        -1.0,
        -0.9996935129165649,
        -1.0
      ],
      "type": "VEC4"
    },
    {
      "bufferView": 1,
      "byteOffset": 164064,
      "componentType": 5126,
      "count": 2853,
      "max": [
        0.9977009892463684,
        0.7206460237503052
      ],
      "min": [
        0.027884000912308693,
        0.003017999930307269
      ],
      "type": "VEC2"
    },
    {
      "bufferView": 0,
      "byteOffset": 381456,
      "componentType": 5125,
      "count": 13932,
      "type": "SCALAR"
    }
  ],
  "asset": {
    "extras": {
      "author": "Neil Laguardia (https://sketchfab.com/Neil_Laguardia)",
      "license": "CC-BY-4.0 (http://creativecommons.org/licenses/by/4.0/)",
      "source": "https://sketchfab.com/3d-models/mechanical-eagle-9d236618133b4bd4b67395c8e61b232a",
      "title": "Mechanical Eagle"
    },
    "generator": "Sketchfab-12.65.0",
    "version": "2.0"
  },
  "bufferViews": [
    {
      "buffer": 0,
      "byteLength": 437184,
      "name": "floatBufferViews",
      "target": 34963
    },
    {
      "buffer": 0,
      "byteLength": 186888,
      "byteOffset": 437184,
      "byteStride": 8,
      "name": "floatBufferViews",
      "target": 34962
    },
    {
      "buffer": 0,
      "byteLength": 560664,
      "byteOffset": 624072,
      "byteStride": 12,
      "name": "floatBufferViews",
      "target": 34962
    },
    {
      "buffer": 0,
      "byteLength": 367632,
      "byteOffset": 1184736,
      "byteStride": 16,
      "name": "floatBufferViews",
      "target": 34962
    }
  ],
  "buffers": [
    {
      "byteLength": 1552368,
      "uri": "scene.bin"
    }
  ],
  "images": [
    {
      "uri": "textures/aiStandardSurface4SG_baseColor.png"
    },
    {
      "uri": "textures/aiStandardSurface4SG_metallicRoughness.png"
    },
    {
      "uri": "textures/aiStandardSurface4SG_emissive.png"
    },
    {
      "uri": "textures/aiStandardSurface4SG_normal.png"
    }
  ],
  "materials": [
    {
      "doubleSided": true,
      "emissiveFactor": [
        1.0,
        1.0,
        1.0
      ],
      "emissiveTexture": {
        "index": 2
      },
      "name": "aiStandardSurface4SG",
      "normalTexture": {
        "index": 3
      },
      "occlusionTexture": {
        "index": 1
      },
      "pbrMetallicRoughness": {
        "baseColorTexture": {
          "index": 0
        },
        "metallicRoughnessTexture": {
          "index": 1
        }
      }
    }
  ],
  "meshes": [
    {
      "name": "Object_0",
      "primitives": [
        {
          "attributes": {
            "NORMAL": 1,
            "POSITION": 0,
            "TANGENT": 2,
            "TEXCOORD_0": 3
          },
          "indices": 4,
          "material": 0,
          "mode": 4
        }
      ]
    },
    {
      "name": "Object_1",
      "primitives": [
        {
          "attributes": {
            "NORMAL": 6,
            "POSITION": 5,
            "TEXCOORD_0": 7
          },
          "indices": 8,
          "material": 0,
          "mode": 4
        }
      ]
    },
    {
      "name": "Object_2",
      "primitives": [
        {
          "attributes": {
            "NORMAL": 10,
            "POSITION": 9,
            "TANGENT": 11,
            "TEXCOORD_0": 12
          },
          "indices": 13,
          "material": 0,
          "mode": 4
        }
      ]
    },
    {
      "name": "Object_3",
      "primitives": [
        {
          "attributes": {
            "NORMAL": 15,
            "POSITION": 14,
            "TANGENT": 16,
            "TEXCOORD_0": 17
          },
          "indices": 18,
          "material": 0,
          "mode": 4
        }
      ]
    },
    {
      "name": "Object_4",
      "primitives": [
        {
          "attributes": {
            "NORMAL": 20,
            "POSITION": 19,
            "TANGENT": 21,
            "TEXCOORD_0": 22
          },
          "indices": 23,
          "material": 0,
          "mode": 4
        }
      ]
    }
  ],
  "nodes": [
    {
      "children": [
        1
      ],
      "matrix": [
        1.0,
        0.0,
        0.0,
        0.0,
        0.0,
        2.220446049250313e-16,
        -1.0,
        0.0,
        0.0,
        1.0,
        2.220446049250313e-16,
        0.0,
        0.0,
        0.0,
        0.0,
        1.0
      ],
      "name": "Sketchfab_model"
    },
    {
      "children": [
        2,
        3,
        4,
        5,
        6
      ],
      "name": "Eagle_mesh.obj.cleaner.materialmerger.gles"
    },
    {
      "mesh": 0,
      "name": "Object_2"
    },
    {
      "mesh": 1,
      "name": "Object_3"
    },
    {
      "mesh": 2,
      "name": "Object_4"
    },
    {
      "mesh": 3,
      "name": "Object_5"
    },
    {
      "mesh": 4,
      "name": "Object_6"
    }
  ],
  "samplers": [
    {
      "magFilter": 9729,
      "minFilter": 9987,
      "wrapS": 10497,
      "wrapT": 10497
    }
  ],
  "scene": 0,
  "scenes": [
    {
      "name": "Sketchfab_Scene",
      "nodes": [
        0
      ]
    }
  ],
  "textures": [
    {
      "sampler": 0,
      "source": 0
    },
    {
      "sampler": 0,
      "source": 1
    },
    {
      "sampler": 0,
      "source": 2
    },
    {
      "sampler": 0,
      "source": 3
    }
  ]
}
